<svg xmlns="http://www.w3.org/2000/svg" width="15.219" height="15.439" viewBox="0 0 15.219 15.439">
  <g id="Group_19774" data-name="Group 19774" transform="translate(-1073 -18.432)">
    <g id="Group_7899" data-name="Group 7899" transform="translate(1073 18.432)">
      <g id="Path_38" data-name="Path 38" transform="translate(0 0)" fill="none">
        <path d="M6.9,0A6.9,6.9,0,1,1,0,6.9,6.9,6.9,0,0,1,6.9,0Z" stroke="none"/>
        <path d="M 6.902293682098389 2.000004768371582 C 4.199163436889648 2.000004768371582 2.000003814697266 4.199084281921387 2.000003814697266 6.902114391326904 C 2.000003814697266 9.605144500732422 4.199163436889648 11.80422401428223 6.902293682098389 11.80422401428223 C 9.605422973632812 11.80422401428223 11.80458354949951 9.605144500732422 11.80458354949951 6.902114391326904 C 11.80458354949951 4.199084281921387 9.605422973632812 2.000004768371582 6.902293682098389 2.000004768371582 M 6.902293682098389 4.76837158203125e-06 C 10.71432399749756 4.76837158203125e-06 13.80458354949951 3.090184211730957 13.80458354949951 6.902114391326904 C 13.80458354949951 10.71404457092285 10.71432399749756 13.80422401428223 6.902293682098389 13.80422401428223 C 3.090263366699219 13.80422401428223 3.814697265625e-06 10.71404457092285 3.814697265625e-06 6.902114391326904 C 3.814697265625e-06 3.090184211730957 3.090263366699219 4.76837158203125e-06 6.902293682098389 4.76837158203125e-06 Z" stroke="none" fill="#fff"/>
      </g>
      <path id="Path_39" data-name="Path 39" d="M.666.051,3.243,2.58" transform="translate(10.562 11.445)" fill="none" stroke="#fff" stroke-linecap="round" stroke-width="2"/>
    </g>
  </g>
</svg>
